<svg xmlns="http://www.w3.org/2000/svg" width="359.214" height="342.99" viewBox="0 0 359.214 342.99"><defs><style>.a{fill:#fff;}.b{fill:#fcdc4a;}.c{fill:#211715;}</style></defs><path class="a" d="M267.04,121.55a136.5,136.5,0,0,0-1.143,24.637c.5,14.933,1.956,58.194,4.025,75.474,5.571.058,12.794.006,19.286.006s12.862-.1,19.011-.235c1.393-17.466,3.926-60.443,4.42-75.245A136.68,136.68,0,0,0,311.5,121.55H267.04Z"></path><path class="a" d="M40.036,218.454a136.68,136.68,0,0,0-1.143,24.637c.5,14.933,1.956,58.193,4.026,75.474,5.57.058,12.793.006,19.285.006s12.862-.1,19.011-.235c1.393-17.466,3.926-60.444,4.42-75.245a136.5,136.5,0,0,0-1.143-24.637H40.036Z"></path><path class="a" d="M92.9,338.842a3.586,3.586,0,0,1-.939.765,10.529,10.529,0,0,1-4.127,1.2,18.419,18.419,0,0,1-9.712-1.642,12.839,12.839,0,0,1-2.378-1.529,25.614,25.614,0,0,0-6.506-3.643c-1.475-.559-3.625-.918-4.8-1.817-1.628-1.25-1.535-3.63-1.535-5.323,0-1.19-.039-4.649-.039-6.012v-2.269c4.53,0,8.993-.055,13.362-.133,5.432,3.207,11.72,8.96,15.651,12.842,1.366,1.348,2.578,3.071,1.947,5.508A4.866,4.866,0,0,1,92.9,338.842Z"></path><path class="a" d="M31.592,338.939a4.7,4.7,0,0,1-1.017-2.153c-.63-2.437.84-4.108,2.206-5.457A88.457,88.457,0,0,1,48.592,318.59c4.116.005,8.609-.016,12.836-.019,0,1.32,0,2.284,0,2.284,0,1.569-.005,4.856-.005,6,0,1.693.171,4.073-1.457,5.323-1.17.9-3.32,1.258-4.8,1.817a25.614,25.614,0,0,0-6.506,3.643,12.839,12.839,0,0,1-2.378,1.529,18.419,18.419,0,0,1-9.712,1.642,10.529,10.529,0,0,1-4.127-1.2A3.645,3.645,0,0,1,31.592,338.939Z"></path><path class="a" d="M319.9,241.938a3.575,3.575,0,0,1-.94.765,10.524,10.524,0,0,1-4.127,1.2,18.407,18.407,0,0,1-9.711-1.642,12.839,12.839,0,0,1-2.378-1.529,25.634,25.634,0,0,0-6.507-3.643c-1.474-.558-3.625-.918-4.794-1.817-1.628-1.25-1.535-3.63-1.535-5.323,0-1.19-.039-4.649-.039-6.012v-2.268c4.53,0,8.993-.056,13.361-.134,5.432,3.208,11.72,8.96,15.652,12.842,1.366,1.348,2.578,3.071,1.947,5.508A4.86,4.86,0,0,1,319.9,241.938Z"></path><path class="a" d="M258.6,242.035a4.7,4.7,0,0,1-1.016-2.153c-.63-2.437.84-4.108,2.206-5.457A88.374,88.374,0,0,1,275.6,221.687c4.116,0,8.609-.017,12.836-.019,0,1.319,0,2.284,0,2.284,0,1.568,0,4.855,0,5.994,0,1.693.171,4.073-1.457,5.323-1.17.9-3.32,1.259-4.8,1.817a25.651,25.651,0,0,0-6.507,3.643,12.773,12.773,0,0,1-2.378,1.529,18.406,18.406,0,0,1-9.711,1.642,10.529,10.529,0,0,1-4.127-1.2A3.672,3.672,0,0,1,258.6,242.035Z"></path><path class="a" d="M38.1,224.971c-2.207-.051-7.531-.181-10.918-.369-2.134,6.3-4.59,14.074-4.51,19.082a2.537,2.537,0,0,0,2.236,2.494,3.62,3.62,0,0,0,2.852-.857,8.642,8.642,0,0,0,1.825-2.4,48.041,48.041,0,0,0,2.873-5.413,4.386,4.386,0,0,0,3.638,2.6,2.86,2.86,0,0,0,1.754-.611,3.272,3.272,0,0,0,1.219-2.639,37.546,37.546,0,0,0,.174-3.874l-.054-7.072Z"></path><path class="a" d="M99.14,246.22a2.7,2.7,0,0,0,.372-.042,2.537,2.537,0,0,0,2.236-2.494c.08-5.026-2.394-12.844-4.532-19.154-3,.2-9.015.351-12,.421.014.563.016.971.016.971l-.054,7.072a37.546,37.546,0,0,0,.174,3.874,3.272,3.272,0,0,0,1.219,2.639,2.86,2.86,0,0,0,1.754.611,4.386,4.386,0,0,0,3.638-2.6,48.041,48.041,0,0,0,2.873,5.413,8.642,8.642,0,0,0,1.825,2.4A3.766,3.766,0,0,0,99.14,246.22Z"></path><path class="a" d="M327.652,149.316a2.735,2.735,0,0,0,2.608-2.536c.08-5.026-2.394-12.844-4.532-19.154-3,.2-9.014.351-12,.421.013.564.015.972.015.972l-.054,7.072a37.539,37.539,0,0,0,.175,3.873,3.271,3.271,0,0,0,1.218,2.639,2.854,2.854,0,0,0,1.754.611,4.386,4.386,0,0,0,3.638-2.6,48.208,48.208,0,0,0,2.873,5.413,8.628,8.628,0,0,0,1.825,2.4A3.762,3.762,0,0,0,327.652,149.316Z"></path><path class="a" d="M312.85,128.068c2.857-.067,11.758-.265,14.1-.548a1.564,1.564,0,0,0,1.31-1.675c-.485-8.366-4.233-41.416-9.69-50.465a20.932,20.932,0,0,0-5.592-6.291c-3.343-2.5-9.017-4.653-12.682-5.973-.869,17.44-2.073,43.077-2.487,61.739a1.466,1.466,0,0,0,1.47,1.5H311.19Z"></path><path class="a" d="M42.242,162.728c-4.882.118-8.058-3.475-8.031-6.786a38.8,38.8,0,0,1,1.181-8.262c.918-3.28,1.574-9.048,1.574-17.047-.392-11.8,2.713-20.361,7.607-25.046a26.563,26.563,0,0,1,17.068-6.673,27.366,27.366,0,0,1,10.843,2.077,20.432,20.432,0,0,1,3.99,2.309c.881.665,1.665,1.362,2.793,2.393,4.26,3.892,7.385,11.477,7.8,17.283.12,1.674.035,4.606.118,8.311.133,9.966.928,14.89,1.876,17.636a18.238,18.238,0,0,1,1.152,6.243c.033,3.73-4.6,8.561-9.933,6.649"></path><path class="a" d="M52.989,218.1c-.433-16.544-1.383-37.414-2.166-53.33,6.375,4.607,16.586,4.29,22.679-.715-.793,16.116-1.774,37.553-2.206,54.4-5.072,0-13.553,0-18.3,0Z"></path><path class="a" d="M86.681,131.023a4.663,4.663,0,0,0-5.284-2.169,29.191,29.191,0,0,1-7.747-6.809,23.719,23.719,0,0,1-4.271-8.078c-6.443,6.1-21.477,14.019-26.6,14.847a4.67,4.67,0,0,0-4.951,2.112,6.364,6.364,0,0,0,.221,6.169,10.05,10.05,0,0,0,5.327,4.295,21.918,21.918,0,0,0,4.355,7.487,18.108,18.108,0,0,0,6.147,4.545l-.012.184c0,.442-.273,2.693-.37,3.219-.236,1.27-.154,2.41-1.923,3.049-.089.032-.586.2-.969.324.073,1.469.148,3,.225,4.57,6.374,4.607,16.585,4.29,22.679-.716.065-1.358.131-2.679.195-3.955-.652-.256-1.685-.658-1.764-.686-1.769-.64-1.7-1.78-1.93-3.05-.19-1.11-.23-1.85-.29-2.52v0a17.549,17.549,0,0,0,7.161-5.106,21.878,21.878,0,0,0,4.266-7.517c.1-.043.2-.079.2-.079a10.1,10.1,0,0,0,4.93-3.952A6.367,6.367,0,0,0,86.681,131.023Z"></path><path class="a" d="M267.143,67.419a23.033,23.033,0,0,0-2.639,1.67,20.932,20.932,0,0,0-5.592,6.291,16.219,16.219,0,0,0-.9,1.761L246.1,78c.38,5.01.39,8.63,1.06,15.95a26.072,26.072,0,0,0,.93,5.63c1.25,3.97,4.73,7.35,8.87,7.78a13.261,13.261,0,0,0,7.155-1c-.119,6.509-.238,13.046-.356,19.993H278.2a1.466,1.466,0,0,0,1.47-1.5c-.414-18.662-1.618-44.3-2.487-61.739A73.228,73.228,0,0,0,267.143,67.419Z"></path><path class="a" d="M313.276,34.119a4.661,4.661,0,0,0-5.284-2.168,29.215,29.215,0,0,1-7.748-6.81,23.731,23.731,0,0,1-4.27-8.078c-6.443,6.1-21.477,14.019-26.6,14.848a4.669,4.669,0,0,0-4.951,2.111,6.366,6.366,0,0,0,.221,6.17,10.054,10.054,0,0,0,5.327,4.3,21.9,21.9,0,0,0,4.355,7.486,18.108,18.108,0,0,0,6.147,4.545l-.012.184c0,.442-.273,2.693-.37,3.219-.236,1.27-.154,2.41-1.923,3.049-.089.032-.586.2-.969.324.073,1.469.148,3,.225,4.57,6.374,4.607,16.585,4.29,22.679-.716q.1-2.037.195-3.955c-.652-.255-1.685-.658-1.764-.686-1.77-.64-1.7-1.78-1.93-3.05-.19-1.11-.23-1.85-.29-2.52v0a17.556,17.556,0,0,0,7.161-5.1,21.873,21.873,0,0,0,4.266-7.518c.1-.043.195-.078.195-.078a10.1,10.1,0,0,0,4.93-3.953A6.367,6.367,0,0,0,313.276,34.119Z"></path><path class="a" d="M245.042,74.033a25.556,25.556,0,0,0-2.1-3.775,5.856,5.856,0,0,1-1.209-3.7,6.8,6.8,0,0,1,.584-2.291c1.344-2.089,2.505-3.913,3.906-5.684A15.122,15.122,0,0,1,247.3,57.4a3.377,3.377,0,0,1,2.344-.971,8.728,8.728,0,0,1,2.217,1.172c1.666.434,2.044-.656,2.829-1.273a3.011,3.011,0,0,1,3.165.034,12.555,12.555,0,0,1,2.47,1.913,3.506,3.506,0,0,1,1.084,2.055,1.558,1.558,0,0,1-.366,1.461,2.7,2.7,0,0,1-2.1.767,4.566,4.566,0,0,1,1.313,3.478,2.367,2.367,0,0,1-.038.539,2.265,2.265,0,0,1-.225.53c-.832,1.577-2.349,3.439-1.645,5.352,1.734,5.027,1.5,7.535-.134,8.957a11.837,11.837,0,0,1-4.467,2.377,10.518,10.518,0,0,1-2.986.258,5.5,5.5,0,0,1-2.265-1.316,5.734,5.734,0,0,1-1.021-2.142c-.256-.923-1.035-3.2-1.623-4.691C245.651,75.378,245.366,74.721,245.042,74.033Z"></path><path class="a" d="M350.016,244H228.4v96.9H350.016Z"></path><path class="a" d="M84.66,223.255H72.749a1.466,1.466,0,0,1-1.47-1.5c.414-18.663,1.617-44.3,2.487-61.739,3.664,1.32,9.339,3.478,12.681,5.972a20.912,20.912,0,0,1,5.592,6.292c5.458,9.049,8.384,42.1,8.868,50.465a1.564,1.564,0,0,1-1.31,1.675c-2.341.283-10.42.48-13.277.547"></path><path class="a" d="M39.762,223.255H51.673a1.466,1.466,0,0,0,1.47-1.5c-.414-18.663-1.617-44.3-2.487-61.739-3.664,1.32-9.339,3.478-12.681,5.972a20.912,20.912,0,0,0-5.592,6.292c-5.458,9.049-8.384,42.1-8.868,50.465a1.564,1.564,0,0,0,1.31,1.675c2.341.283,10.42.48,13.277.547Z"></path><path class="b" d="M312.862,40.279a10.1,10.1,0,0,1-4.93,3.953s-.1.035-.195.078a21.873,21.873,0,0,1-4.266,7.518,17.556,17.556,0,0,1-7.161,5.1v0c.06.67.1,1.41.29,2.52.23,1.27.16,2.41,1.93,3.05.079.028,1.109.43,1.762.685l0-.076c1.391.5,3.07,1.123,4.8,1.838l1.776-.043c5.33,1.912,9.966-2.918,9.933-6.649a18.242,18.242,0,0,0-1.152-6.243c-.847-2.453-1.571-6.658-1.81-14.634A6.879,6.879,0,0,1,312.862,40.279Z" style="fill: rgb(251, 154, 161);"></path><path class="b" d="M268.837,65.824l1.621-.039c2.38-1.067,4.824-1.983,6.728-2.669l.008.179h0c.383-.128.88-.292.969-.324,1.769-.639,1.687-1.779,1.923-3.049.1-.526.37-2.777.37-3.219l.012-.184a18.108,18.108,0,0,1-6.147-4.545,21.9,21.9,0,0,1-4.355-7.486,10.054,10.054,0,0,1-5.327-4.3,6.366,6.366,0,0,1-.221-6.17,4.669,4.669,0,0,1,4.951-2.111c5.127-.829,20.161-8.745,26.6-14.848a23.731,23.731,0,0,0,4.27,8.078,29.215,29.215,0,0,0,7.748,6.81,4.661,4.661,0,0,1,5.284,2.168A5.129,5.129,0,0,1,313.8,35.7c-.009-.432-.018-.863-.024-1.315-.083-3.7,0-6.637-.118-8.311-.413-5.806-3.538-13.391-7.8-17.283-1.128-1.03-1.912-1.727-2.793-2.393a20.432,20.432,0,0,0-3.99-2.309A27.366,27.366,0,0,0,288.236,2.01a26.563,26.563,0,0,0-17.068,6.673c-4.894,4.685-8,13.244-7.607,25.046,0,8-.656,13.767-1.574,17.047a38.815,38.815,0,0,0-1.181,8.262C260.779,62.349,263.955,65.942,268.837,65.824Z" style="fill: rgb(251, 154, 161);"></path><path class="b" d="M216.207,106.134h0a21.145,21.145,0,0,1,4.722-8.486,15.024,15.024,0,0,1,8.473-4.592v0a16.1,16.1,0,0,1-8.928-4.662c-2.477-2.674-4-8.546-4.261-9.057-.215.511-2.03,6.428-4.508,9.1a15.37,15.37,0,0,1-8.7,4.617h0a14.121,14.121,0,0,1,8.586,4.628A23.66,23.66,0,0,1,216.207,106.134Z" style="fill: rgb(251, 154, 161);"></path><path class="b" d="M344.016,43.863h0a21.145,21.145,0,0,1,4.722-8.486,15.024,15.024,0,0,1,8.473-4.592v0a16.1,16.1,0,0,1-8.928-4.662c-2.477-2.674-4.005-8.546-4.261-9.057-.215.511-2.03,6.428-4.508,9.1a15.37,15.37,0,0,1-8.7,4.617h0a14.121,14.121,0,0,1,8.586,4.628A23.66,23.66,0,0,1,344.016,43.863Z" style="fill: rgb(251, 154, 161);"></path><path class="b" d="M279.584,121.2c-.433-16.545-1.383-37.415-2.166-53.331,6.375,4.607,16.586,4.29,22.679-.715-.793,16.116-1.774,37.553-2.206,54.4-5.072,0-13.553,0-18.3,0Z" style="fill: rgb(251, 154, 161);"></path><path class="c" d="M323.805,128.149c1.87,5.524,4.057,11.373,4.422,17.243.04.636.345,1.729-.486,1.906-1.179.251-2.007-1.177-2.5-2a51.052,51.052,0,0,1-3.386-6.5,2.067,2.067,0,0,0-2.46-1.4,2.012,2.012,0,0,0-1.4,2.46,41.18,41.18,0,0,0,4.524,8.574,6.365,6.365,0,0,0,4.853,2.881,4.768,4.768,0,0,0,4.465-2.662c.71-1.547.42-3.432.208-5.068a49.2,49.2,0,0,0-.976-5.2c-.922-3.825-2.146-7.571-3.407-11.3-.821-2.425-4.686-1.384-3.857,1.064Z"></path><path class="c" d="M318.118,140.526a2.353,2.353,0,0,1-.481.4c-.121.076-.245.146-.373.21q.247-.09-.082.026a3,3,0,0,1-.363.089q.358-.05.017-.038.206.057-.14-.021a3.03,3.03,0,0,1-.374-.111q.308.129.017-.024.32.275-.008-.029c-.1-.1-.194-.2-.285-.305q.175.24-.01-.033l-.083-.147c.084.229.089.235.013.018-.033-.11-.06-.223-.082-.336q.033.339,0-.045c-.125-1.553-.2-3.1-.187-4.654l.05-6.508a2,2,0,0,0-4,0l-.045,5.886c-.007.988-.022,1.977.021,2.965.1,2.221.137,4.442,1.866,6.067,2.2,2.067,5.365,1.348,7.362-.582a2,2,0,1,0-2.829-2.829Z"></path><path class="c" d="M286.428,223.952q0,2.47,0,4.941c0,1.315.3,3.067-.285,4.285-.639,1.321-3.1,1.48-4.337,1.921a26.313,26.313,0,0,0-6.138,3.161,18.756,18.756,0,0,1-5.494,3.053,16.467,16.467,0,0,1-6.6.587c-1.674-.2-3.587-.566-4.025-2.392-.409-1.707.787-2.822,1.916-3.932a94.484,94.484,0,0,1,11.664-9.915c2.087-1.472.091-4.942-2.019-3.454A100.443,100.443,0,0,0,258.5,232.88c-1.614,1.593-3.068,3.465-3.075,5.846a6.564,6.564,0,0,0,3.194,5.8c4.695,2.568,11.467,1.7,16.041-.73,2.257-1.2,4.126-2.962,6.451-4.093,2.186-1.064,4.865-1.292,6.86-2.711,2.234-1.588,2.46-4.24,2.449-6.762-.008-2.094,0-4.188,0-6.282,0-2.574-4-2.579-4,0Z"></path><path class="c" d="M287.869,223.934c0,1.872.032,3.743.038,5.614.007,2.027-.063,4.267,1.13,6.02,1.473,2.165,4.041,2.531,6.343,3.33a27.977,27.977,0,0,1,7,4.04,18.57,18.57,0,0,0,15.767,2.3,6.531,6.531,0,0,0,4.616-4.825,7.487,7.487,0,0,0-1.989-6.962,72.984,72.984,0,0,0-6.035-5.694,90.844,90.844,0,0,0-7.687-6.134c-2.108-1.487-4.108,1.979-2.019,3.454a94.306,94.306,0,0,1,10.441,8.775c1.182,1.123,3,2.409,3.438,4.061a2.8,2.8,0,0,1-2.031,3.538,14.765,14.765,0,0,1-12.643-2.087,30.991,30.991,0,0,0-5.946-3.583,25.276,25.276,0,0,0-2.909-1.072,7.867,7.867,0,0,1-2.661-.983c-1.161-.936-.8-3.1-.811-4.417-.009-1.792-.034-3.584-.037-5.376,0-2.573-4-2.578-4,0Z"></path><path class="c" d="M310.086,126.375c1.291,12.836.36,25.772-.321,38.619q-1.035,19.522-2.319,39.03c-.382,5.812-.776,11.624-1.242,17.43-.206,2.566,3.8,2.553,4,0,.923-11.492,1.623-23,2.314-34.511.72-11.98,1.415-23.965,1.933-35.956a171.493,171.493,0,0,0-.365-24.612,2.056,2.056,0,0,0-2-2,2.013,2.013,0,0,0-2,2Z"></path><path class="c" d="M264.453,126.347c-1.3,12.757-.387,25.666.1,38.451.5,12.945,1.046,25.892,1.867,38.821.373,5.872.773,11.752,1.451,17.6a2.061,2.061,0,0,0,2,2,2.012,2.012,0,0,0,2-2c-1.324-11.417-1.821-22.947-2.376-34.421-.577-11.921-1.03-23.847-1.44-35.774a181.756,181.756,0,0,1,.4-24.675,2.013,2.013,0,0,0-2-2,2.045,2.045,0,0,0-2,2Z"></path><path class="c" d="M287.208,147.1v74.122c0,2.574,4,2.578,4,0V147.1c0-2.573-4-2.578-4,0Z"></path><path class="c" d="M271.093,223.667q18.051.143,36.111-.213c2.57-.054,2.579-4.054,0-4q-18.05.382-36.111.213c-2.575-.02-2.577,3.98,0,4Z"></path><path class="c" d="M279.6,123.547h18.28c2.574,0,2.578-4,0-4H279.6c-2.573,0-2.578,4,0,4Z"></path><path class="c" d="M95.305,225.139c1.026,3.02,2.021,6.053,2.856,9.133a39.792,39.792,0,0,1,1.557,8.178c.032.592.291,1.6-.494,1.765-1.166.239-2.01-1.2-2.5-2.011a51.571,51.571,0,0,1-3.386-6.509,2.067,2.067,0,0,0-2.46-1.4,2.011,2.011,0,0,0-1.4,2.46,41.121,41.121,0,0,0,4.524,8.582,6.348,6.348,0,0,0,4.919,2.88,4.807,4.807,0,0,0,4.336-2.538c.746-1.465.5-3.293.307-4.865a48.075,48.075,0,0,0-1.01-5.494c-.917-3.81-2.14-7.541-3.4-11.249-.824-2.424-4.688-1.383-3.857,1.064Z"></path><path class="c" d="M84.006,239.5a5.726,5.726,0,0,0,1.742,1.879,5.057,5.057,0,0,0,2.389.726,5.655,5.655,0,0,0,4.3-1.841,2,2,0,1,0-2.829-2.828,5.692,5.692,0,0,1-.535.47l.405-.313a4.776,4.776,0,0,1-.927.547l.478-.2a3.41,3.41,0,0,1-.845.239l.531-.072a3.139,3.139,0,0,1-.756-.022l.531.071a3.411,3.411,0,0,1-.812-.219l.478.2a2.533,2.533,0,0,1-.486-.282l.4.312a4.128,4.128,0,0,1-.641-.66l.312.405a3.678,3.678,0,0,1-.287-.432,2,2,0,1,0-3.454,2.019Z"></path><path class="c" d="M25.255,224.075c-1.258,3.71-2.478,7.442-3.395,11.252a49.038,49.038,0,0,0-.971,5.182c-.21,1.629-.5,3.507.211,5.048a4.784,4.784,0,0,0,4.464,2.661,6.37,6.37,0,0,0,4.849-2.877,40.584,40.584,0,0,0,4.519-8.582,2.012,2.012,0,0,0-1.4-2.46,2.05,2.05,0,0,0-2.46,1.4,52.635,52.635,0,0,1-3.3,6.366c-.487.831-1.334,2.381-2.539,2.156-.869-.162-.567-1.259-.526-1.909.367-5.846,2.537-11.668,4.4-17.169.828-2.443-3.034-3.492-3.857-1.064Z"></path><path class="c" d="M41.193,226.107v-.18a1.93,1.93,0,0,0-1.229-1.828,1.512,1.512,0,0,0-.771-.172l-.531.072a2,2,0,0,0-.883.514l-.313.405a1.987,1.987,0,0,0-.273,1.009v.18a1.5,1.5,0,0,0,.173.771,2.054,2.054,0,0,0,1.827,1.229l.532-.071a2,2,0,0,0,.883-.515l.312-.4a1.991,1.991,0,0,0,.273-1.01Z"></path><path class="c" d="M31.989,240.261a5.612,5.612,0,0,0,4.436,1.824,4.97,4.97,0,0,0,2.546-.932,5.079,5.079,0,0,0,1.549-1.866,2.181,2.181,0,0,0,.2-1.542,2.047,2.047,0,0,0-.919-1.195,2.018,2.018,0,0,0-1.541-.2,1.939,1.939,0,0,0-1.2.919,3.128,3.128,0,0,1-.381.635L37,237.5a4.015,4.015,0,0,1-.652.67l.4-.313a2.618,2.618,0,0,1-.515.292l.478-.2a3.5,3.5,0,0,1-.773.205l.532-.071a3.112,3.112,0,0,1-.777.023l.531.071a3.336,3.336,0,0,1-.79-.22l.478.2a4.77,4.77,0,0,1-1.022-.607l.405.312a5.679,5.679,0,0,1-.478-.426,2,2,0,1,0-2.829,2.828Z"></path><path class="c" d="M306.342,66.836A9.722,9.722,0,0,0,318.57,60.1c1.123-4.514-1.474-9.11-2.082-13.548-.813-5.938-.722-11.99-.757-17.969a32.068,32.068,0,0,0-3.889-15.118A25.221,25.221,0,0,0,299.615,2.159,28.714,28.714,0,0,0,281.8.848c-4.837,1.242-9.833,3.777-13.156,7.589a28.612,28.612,0,0,0-6.051,12.839c-1.5,6.964-.784,14.063-1.327,21.115C260.833,47.948,259,53.26,258.8,58.837c-.088,2.575,3.912,2.571,4,0,.152-4.426,1.557-8.614,2.11-12.983.716-5.662.392-11.309.692-16.984a33.582,33.582,0,0,1,3.5-14.092,18.93,18.93,0,0,1,8.232-7.954,24.458,24.458,0,0,1,16.044-2.369,21.529,21.529,0,0,1,12.355,7.072,26.493,26.493,0,0,1,5.82,13.463,52.128,52.128,0,0,1,.183,6.661c.016,3.086.078,6.175.251,9.256a70.226,70.226,0,0,0,.83,7.926c.331,1.934.99,3.713,1.483,5.6.6,2.306.926,4.7-.634,6.663a5.534,5.534,0,0,1-6.264,1.88c-2.448-.815-3.5,3.047-1.063,3.857Z"></path><path class="c" d="M259.586,62.407c1.588,3.534,5.493,5.477,9.247,5.42a2,2,0,0,0,0-4,4.636,4.636,0,0,1-1.332-.065c.134.042.46.069.128.013-.094-.016-.188-.034-.282-.053q-.276-.056-.548-.13c-.194-.053-.387-.113-.577-.181-.085-.03-.169-.063-.253-.094-.378-.136.441.21.084.036a9.648,9.648,0,0,1-.96-.519c-.143-.091-.282-.186-.419-.285-.267-.2.035.057.127.1a1.336,1.336,0,0,1-.228-.191,7.435,7.435,0,0,1-.722-.72c-.052-.06-.1-.122-.154-.182-.242-.281.29.408.081.105-.089-.128-.18-.254-.263-.386a7.127,7.127,0,0,1-.475-.887,2,2,0,0,0-1.195-.919,2,2,0,0,0-2.259,2.938Z"></path><path class="c" d="M308.524,33.879c.161-.044.32-.075.484-.111-.457.1.018.013.126.011.166,0,.33.009.5.018-.276-.014-.175-.03.042.017a4.675,4.675,0,0,1,.481.13c.184.059.314.132.064.01.15.073.3.148.441.234.059.035.479.351.14.068.128.107.251.217.368.336.073.074.36.461.116.107.08.116.156.234.225.356.046.078.088.157.127.238l-.02-.053a5.82,5.82,0,0,1,.264.987c-.078-.409,0,.167.006.219.008.19.006.381,0,.571,0,.086-.077.629-.011.23-.026.159-.058.316-.1.472-.044.188-.1.373-.156.557-.038.113-.146.412-.038.151a6.1,6.1,0,0,1-.548,1c-.006.009-.356.5-.14.219-.118.155-.247.3-.378.446a9.713,9.713,0,0,1-.768.764c-.122.109-.248.217-.376.321.261-.212-.173.124-.227.162a10.45,10.45,0,0,1-1,.614c-.17.092-.344.174-.517.259-.38.184.2-.073-.223.088a2.045,2.045,0,0,0-1.4,2.46,2.022,2.022,0,0,0,2.46,1.4c3.974-1.5,7.469-5.045,7.425-9.525a6.9,6.9,0,0,0-2.8-5.623,6.71,6.71,0,0,0-5.63-.99,2,2,0,0,0,1.064,3.857Z"></path><path class="c" d="M270.3,30.091a6.705,6.705,0,0,0-5.652.862,6.936,6.936,0,0,0-2.92,5.565c-.184,4.489,3.277,8.092,7.184,9.707a2,2,0,0,0,2.46-1.4,2.062,2.062,0,0,0-1.4-2.46c.362.15-.193-.1-.213-.11q-.26-.129-.51-.275a10.472,10.472,0,0,1-.9-.587c-.11-.082-.106-.077.013.013-.078-.061-.154-.124-.229-.189q-.189-.16-.37-.328a11.535,11.535,0,0,1-.815-.855c-.4-.457.177.283-.165-.21-.11-.158-.218-.317-.319-.481-.083-.136-.161-.273-.235-.414-.045-.084-.088-.169-.128-.255.06.156.065.169.014.037a6.749,6.749,0,0,1-.305-1.013c-.008-.038-.088-.632-.051-.228-.018-.192-.032-.382-.036-.574s.011-.38.015-.571c.008-.37-.043.085.012-.123a7.616,7.616,0,0,1,.277-.985c-.15.364.076-.116.118-.188s.352-.476.072-.148c.109-.127.219-.25.34-.367.077-.073.466-.351.109-.11.115-.078.23-.154.35-.224.051-.029.519-.263.282-.157s.176-.058.228-.074c.159-.05.321-.084.483-.123.5-.119-.383,0,.126-.014.167,0,.331,0,.5,0,.419,0-.316-.107.124.009.16.042.321.078.48.126a2.018,2.018,0,0,0,2.46-1.4,2.041,2.041,0,0,0-1.4-2.46Z"></path><path class="c" d="M305.809,43.778A19.376,19.376,0,0,1,299.22,53.1a17.018,17.018,0,0,1-10.289,3.055,17.622,17.622,0,0,1-10.542-3.14,19.017,19.017,0,0,1-6.5-9.088c-.843-2.415-4.708-1.376-3.858,1.064,2.32,6.652,7.406,12.476,14.381,14.336,7.046,1.878,15.056.73,20.595-4.185a23.993,23.993,0,0,0,6.66-10.3c.828-2.444-3.035-3.493-3.857-1.064Z"></path><path class="c" d="M293.586,36.576a3.852,3.852,0,0,1,.951-3.093,2.942,2.942,0,0,1,2.013-.858,3.158,3.158,0,0,1,2.637,1.236,3.871,3.871,0,0,1-.083,4.514,3.005,3.005,0,0,1-4.051.66A3.3,3.3,0,0,1,293.586,36.576Z"></path><path class="c" d="M278.242,36.576a3.852,3.852,0,0,1,.951-3.093,2.941,2.941,0,0,1,2.013-.858,3.156,3.156,0,0,1,2.636,1.236,3.87,3.87,0,0,1-.083,4.514,3,3,0,0,1-4.05.66A3.3,3.3,0,0,1,278.242,36.576Z"></path><path class="c" d="M294.56,15.649a63.72,63.72,0,0,1-12.861,8.8c-3.852,2.135-7.981,4.421-12.307,5.432-2.506.585-1.446,4.442,1.063,3.857,4.644-1.085,9.125-3.542,13.263-5.835a67.9,67.9,0,0,0,13.67-9.424c1.882-1.765-.951-4.589-2.828-2.828Z"></path><path class="c" d="M309,30.224a23.27,23.27,0,0,1-3.714-2.7c-.661-.575-1.3-1.176-1.911-1.806q-.437-.45-.849-.922c-.12-.137-.238-.275-.354-.416.006.008-.385-.495-.2-.251a30.365,30.365,0,0,1-2.8-4.374q-.212-.411-.4-.832c-.018-.04-.249-.581-.079-.168-.054-.131-.107-.264-.159-.4-.233-.6-.435-1.213-.623-1.83a2,2,0,1,0-3.857,1.063,28.771,28.771,0,0,0,12.937,16.083c2.23,1.3,4.246-2.16,2.018-3.453Z"></path><path class="c" d="M278.457,56.7a21.429,21.429,0,0,1-.269,2.539l.071-.532a10.092,10.092,0,0,1-.473,2.409l.2-.477a2.487,2.487,0,0,1-.161.312c-.117.186-.219.157.14-.17-.046.042-.085.094-.13.138a1.31,1.31,0,0,0-.15.133c0-.055.464-.318.158-.138a4.283,4.283,0,0,1-.482.246l.478-.2c-.486.2-.993.341-1.489.51a2,2,0,1,0,1.064,3.857,9.916,9.916,0,0,0,2.629-1.082,4.458,4.458,0,0,0,1.842-3q.208-1.242.364-2.489a18.442,18.442,0,0,0,.207-2.057,2,2,0,0,0-4,0Z"></path><path class="c" d="M294.31,56.937c.083.941.173,1.877.322,2.811a9.509,9.509,0,0,0,.388,1.909,4.3,4.3,0,0,0,2.074,2.4c.555.276,1.159.48,1.737.7.483.188.968.372,1.448.567a2,2,0,0,0,1.541-.2,2,2,0,0,0,.717-2.737,2.34,2.34,0,0,0-1.195-.919c-.822-.335-1.657-.636-2.48-.967l.478.2a3.453,3.453,0,0,1-.71-.4l.405.312a2.391,2.391,0,0,1-.371-.368l.313.405a2.391,2.391,0,0,1-.276-.471l.2.478a10.383,10.383,0,0,1-.494-2.525l.071.532c-.074-.574-.119-1.15-.17-1.726a2.144,2.144,0,0,0-.585-1.414,2,2,0,0,0-3.415,1.414Z"></path><path class="c" d="M277.031,70.018c6.986,4.436,17.076,4.156,23.709-.85a2.063,2.063,0,0,0,.717-2.736,2.013,2.013,0,0,0-2.736-.718,17.724,17.724,0,0,1-19.671.85c-2.18-1.384-4.188,2.076-2.019,3.454Z"></path><path class="c" d="M310.96,83.585q.364,21.375.761,42.748c.044,2.571,4.044,2.579,4,0q-.366-21.375-.761-42.748c-.044-2.571-4.044-2.579-4,0Z"></path><path class="c" d="M311.19,124.351H300.957a4.99,4.99,0,0,0-1.514,0c-.034.016-.142-.026-.165,0l.53.5c.006-.243.011-.487.017-.73s.011-.492.017-.738q.054-2.279.12-4.557c.346-12.223.861-24.44,1.419-36.654q.437-9.531.914-19.06l-2.531,1.929a60.549,60.549,0,0,1,10.3,4.523,19.1,19.1,0,0,1,7.017,7.243,18.333,18.333,0,0,1,1.056,2.269c.43,1.105.805,2.232,1.15,3.367.815,2.673,1.467,5.395,2.055,8.127a255.405,255.405,0,0,1,4.772,33.266c.035.445.069.89.1,1.336.008.115-.034.447.035.543.087.122.779-.094.329-.16a9.734,9.734,0,0,0-1.773.123c-.789.044-1.579.078-2.369.109-3.195.127-6.392.2-9.589.277-2.57.06-2.58,4.06,0,4,3.044-.072,6.089-.144,9.133-.259,2.745-.1,7.43.435,8.19-3.086a10.842,10.842,0,0,0-.069-3.056q-.133-1.639-.3-3.276-.409-4.172-.936-8.331c-.84-6.708-1.829-13.406-3.149-20.037-1.089-5.469-2.265-11.143-4.665-16.213a22.692,22.692,0,0,0-7.618-8.839c-3.8-2.61-8.307-4.229-12.613-5.783a2.019,2.019,0,0,0-2.532,1.928q-.927,18.608-1.693,37.222-.381,9.632-.662,19.266-.057,2.076-.107,4.153c-.038,1.657.148,3.3,1.781,4.169a7.915,7.915,0,0,0,3.715.425h9.861c2.574,0,2.578-4,0-4Z"></path><path class="c" d="M262.521,83.585q-.364,21.375-.761,42.748c-.044,2.575,3.956,2.575,4,0q.366-21.375.761-42.748c.044-2.575-3.956-2.575-4,0Z"></path><path class="c" d="M260.84,76.057a19.825,19.825,0,0,1,7.217-6.858,65.507,65.507,0,0,1,9.658-4.153l-2.532-1.929c.654,11.774,1.146,23.561,1.624,35.343q.372,9.177.662,18.358c.044,1.448.088,2.895.124,4.343.019.764.034,1.528.051,2.293a4.248,4.248,0,0,0,.02.939q-.151.993.539-.046h-.027c-.074-.089-.752,0-.866,0H266.293c-2.573,0-2.578,4,0,4H274.4c1.229,0,2.47.049,3.7,0a3.709,3.709,0,0,0,2.68-1.145c1.269-1.385.874-3.457.836-5.176-.285-12.951-.876-25.9-1.466-38.84-.3-6.69-.591-13.382-.963-20.069a2.018,2.018,0,0,0-2.531-1.928,69.4,69.4,0,0,0-10.94,4.74,23.929,23.929,0,0,0-8.326,8.109c-1.387,2.177,2.073,4.186,3.454,2.019Z"></path><path class="c" d="M244.1,78c.241,3.222.367,6.45.572,9.674q.2,3.141.488,6.276a25.772,25.772,0,0,0,1.237,6.836,13.511,13.511,0,0,0,7.639,7.909,15.023,15.023,0,0,0,11.083-.608,2.012,2.012,0,0,0,.718-2.737,2.053,2.053,0,0,0-2.736-.717,10.378,10.378,0,0,1-8.482-.036,10.226,10.226,0,0,1-5.062-7.395,84.744,84.744,0,0,1-.97-10.929c-.161-2.758-.281-5.518-.487-8.273-.191-2.552-4.192-2.572-4,0Z"></path><path class="c" d="M259.959,60.833c-2.284-1.735-4.626-3.41-7.055-4.937a10.861,10.861,0,0,0-2.488-1.332,4.685,4.685,0,0,0-3.845.864,14.571,14.571,0,0,0-3.092,3.486,34.621,34.621,0,0,0-2.979,4.5,7.9,7.9,0,0,0,.858,8.052,31.327,31.327,0,0,1,3.441,7.343c.422,1.217.725,2.5,1.247,3.674a6.206,6.206,0,0,0,3.705,3.289c2.168.915,5.2-.077,7.165-1.1,2.117-1.1,4.034-2.644,4.485-5.1a11.766,11.766,0,0,0-.263-4.7c-.37-1.643-1.353-3.132-.559-4.749.725-1.477,1.691-2.588,1.676-4.309a7.167,7.167,0,0,0-1.891-4.676c-1.649-1.98-4.465.863-2.829,2.829a2.792,2.792,0,0,1,.719,2.2c-.038.274.32-.371-.162.243a6.005,6.005,0,0,0-.384.659,16.218,16.218,0,0,0-1.017,1.991,5.9,5.9,0,0,0-.272,3.923,29.848,29.848,0,0,1,1.066,4.019,5.46,5.46,0,0,1-.036,1.966c-.139.595-.23.7-.852,1.2a9.485,9.485,0,0,1-5.064,1.923c-.345.042-.7-.173-.119.072-.229-.1-.466-.185-.692-.29a1.751,1.751,0,0,1-1.008-.937,27.306,27.306,0,0,1-1-3.016,45.566,45.566,0,0,0-2.742-6.5c-.923-1.747-2.6-3.457-2.148-5.41a7.889,7.889,0,0,1,1.433-2.631A41.11,41.11,0,0,1,247.633,60a5.03,5.03,0,0,1,1.451-1.448c.1-.046.5-.064.562-.119-.094.089-.483-.055-.528-.1a4.934,4.934,0,0,0,.966.532c.444.263.88.538,1.313.817,2.242,1.446,4.419,3,6.543,4.611a2.011,2.011,0,0,0,2.736-.717,2.049,2.049,0,0,0-.717-2.736Z"></path><path class="c" d="M254.566,59.123a7.2,7.2,0,0,0,.98-.837c.09-.094.178-.19.271-.282.061-.062.124-.121.189-.178l-.214.163a2.067,2.067,0,0,1,.191-.116q.284-.137-.171.071a1.114,1.114,0,0,0,.327-.082q-.489.056-.249.038c.058,0,.115-.007.173-.007a1.721,1.721,0,0,0,.35.016c-.336-.05-.4-.055-.182-.017.078.015.155.034.231.054.114.031.225.072.338.107.384.122-.392-.22-.052-.016.107.065.221.12.33.185a3.731,3.731,0,0,1,.793.538c-.332-.354-.054-.039.043.041.131.108.261.22.389.332.237.208.476.418.7.642.082.082.156.187.241.265q-.287-.381-.106-.126c.032.048.063.1.091.146s.058.1.084.15c.092.19.073.135-.056-.163a2.315,2.315,0,0,0,.115.334c.035.119.061.238.089.358.094.4-.068-.459-.009.04q-.007.244.045-.249a1.325,1.325,0,0,1-.053.206l.12-.288q-.159.261.14-.149a1.5,1.5,0,0,0-.176.18c-.187.231.46-.277.095-.078a1.5,1.5,0,0,0-.305.171l.279-.116c-.07.027-.142.051-.214.072s-.153.041-.231.057l.286-.034a2.5,2.5,0,0,0-.532,0,2.012,2.012,0,0,0-2,2,2.047,2.047,0,0,0,2,2,4.614,4.614,0,0,0,3.626-1.428,4.239,4.239,0,0,0,.335-4.729,8.305,8.305,0,0,0-2.661-2.851,7.147,7.147,0,0,0-3.85-1.643,4.409,4.409,0,0,0-2.39.514,4.333,4.333,0,0,0-.976.757c-.124.122-.239.252-.361.376-.1.106-.521.443-.08.118a2.172,2.172,0,0,0-.919,1.2,2.043,2.043,0,0,0,.2,1.541,2.021,2.021,0,0,0,2.736.717Z"></path><path class="c" d="M350.016,242H228.4a2.03,2.03,0,0,0-2,2v96.9a2.029,2.029,0,0,0,2,2H350.016a2.029,2.029,0,0,0,2-2V244c0-2.573-4-2.578-4,0v96.9l2-2H228.4l2,2V244l-2,2H350.016C352.589,246,352.594,242,350.016,242Z"></path><path class="c" d="M218.675,137.664c-9.458,5.1-19.71,11.036-30.468,13.708a1,1,0,0,0,.012,1.941l9.282,2.268a1.006,1.006,0,0,1,.55,1.609c-14.9,18.133-42.548,35.033-66.81,45.032a1.21,1.21,0,0,0,.722,2.3c15.677-2.948,34.46-9.123,43.484-13.974,11.786-6.336,23.639-14.156,30.535-23.22a.965.965,0,0,1,1.585.176c1.419,2.481,3.491,5.774,5.409,8.971a1,1,0,0,0,1.836-.3,364.62,364.62,0,0,0,5.327-37.54A1,1,0,0,0,218.675,137.664Z"></path><path class="c" d="M216.207,108.134h0a2.029,2.029,0,0,0,1.929-1.469,15.426,15.426,0,0,1,11.8-11.68,2.019,2.019,0,0,0,1.468-1.929v0a2.012,2.012,0,0,0-1.468-1.929c-3.462-.552-7.12-2.361-8.973-5.442-1.4-2.322-1.933-4.918-3.021-7.358-.782-1.754-3.1-.924-3.655.478a41.433,41.433,0,0,1-3.042,6.921,12.645,12.645,0,0,1-8.768,5.4,2.014,2.014,0,0,0-1.469,1.929h0a2.017,2.017,0,0,0,1.469,1.929,12.843,12.843,0,0,1,7.559,3.951,19,19,0,0,1,4.243,7.731c.6,2.5,4.463,1.442,3.857-1.063a23.273,23.273,0,0,0-5.272-9.5,16.307,16.307,0,0,0-9.324-4.98l1.468,1.928h0l-1.468,1.928a16.511,16.511,0,0,0,10.813-6.706c1.759-2.572,2.658-5.545,3.791-8.41l-3.655.478c-.217-.485-.127-.308-.018.037.072.231.15.461.225.691.246.748.5,1.492.78,2.228a23.117,23.117,0,0,0,2.541,5.187,16.841,16.841,0,0,0,10.856,6.495L227.4,93.053v0l1.469-1.929c-7.088,1.321-12.975,7.49-14.592,14.475l1.928-1.468h0C213.633,104.114,213.63,108.114,216.207,108.134Z"></path><path class="c" d="M344.016,45.863h0a2.029,2.029,0,0,0,1.929-1.469,15.428,15.428,0,0,1,11.8-11.681,2.017,2.017,0,0,0,1.468-1.928v0a2.012,2.012,0,0,0-1.468-1.929c-3.462-.552-7.12-2.361-8.973-5.442-1.4-2.322-1.933-4.918-3.021-7.358-.782-1.754-3.1-.924-3.655.478a41.433,41.433,0,0,1-3.042,6.921,12.645,12.645,0,0,1-8.768,5.4,2.014,2.014,0,0,0-1.469,1.929h0a2.017,2.017,0,0,0,1.469,1.929,12.843,12.843,0,0,1,7.559,3.951,19,19,0,0,1,4.243,7.731c.6,2.5,4.463,1.442,3.857-1.063a23.273,23.273,0,0,0-5.272-9.5,16.307,16.307,0,0,0-9.324-4.98l1.468,1.928h0l-1.468,1.928A16.511,16.511,0,0,0,342.162,26c1.759-2.572,2.658-5.545,3.791-8.41l-3.655.478c-.217-.485-.127-.308-.018.037.072.231.149.461.225.691.246.748.5,1.492.78,2.228a23.117,23.117,0,0,0,2.541,5.187,16.841,16.841,0,0,0,10.856,6.5l-1.469-1.928v0l1.469-1.929c-7.088,1.32-12.975,7.49-14.592,14.475l1.928-1.468h0C341.442,41.843,341.439,45.843,344.016,45.863Z"></path><path class="c" d="M59.424,320.855q0,2.471,0,4.942c0,1.314.3,3.067-.285,4.285-.639,1.321-3.1,1.479-4.336,1.921a26.3,26.3,0,0,0-6.139,3.161,18.73,18.73,0,0,1-5.494,3.052,16.467,16.467,0,0,1-6.595.588c-1.674-.2-3.587-.566-4.024-2.392-.41-1.707.787-2.822,1.915-3.932a94.311,94.311,0,0,1,11.664-9.915c2.087-1.472.091-4.942-2.019-3.454A100.52,100.52,0,0,0,31.5,329.783c-1.614,1.594-3.068,3.466-3.075,5.846a6.562,6.562,0,0,0,3.194,5.8c4.7,2.569,11.468,1.7,16.041-.729,2.257-1.2,4.126-2.962,6.451-4.093,2.186-1.065,4.865-1.292,6.86-2.711,2.234-1.588,2.46-4.24,2.45-6.762-.009-2.094,0-4.188,0-6.283,0-2.574-4-2.578-4,0Z"></path><path class="c" d="M60.865,320.838c0,1.871.032,3.743.038,5.614.007,2.027-.063,4.267,1.13,6.02,1.473,2.165,4.041,2.53,6.343,3.329a27.987,27.987,0,0,1,7,4.041,18.572,18.572,0,0,0,15.767,2.3,6.529,6.529,0,0,0,4.615-4.825,7.484,7.484,0,0,0-1.989-6.962,72.962,72.962,0,0,0-6.034-5.694,90.818,90.818,0,0,0-7.688-6.134c-2.107-1.488-4.108,1.979-2.019,3.454a94.122,94.122,0,0,1,10.441,8.775c1.182,1.123,3,2.408,3.438,4.061a2.8,2.8,0,0,1-2.031,3.538,14.765,14.765,0,0,1-12.643-2.087,31.014,31.014,0,0,0-5.945-3.583,25.106,25.106,0,0,0-2.91-1.072,7.9,7.9,0,0,1-2.661-.983c-1.161-.936-.8-3.1-.811-4.417-.009-1.792-.034-3.584-.037-5.376,0-2.574-4-2.578-4,0Z"></path><path class="c" d="M83.078,223.237c1.3,12.85.365,25.8-.317,38.661q-1.035,19.522-2.319,39.03c-.382,5.812-.775,11.624-1.242,17.43-.206,2.566,3.8,2.553,4,0,.923-11.492,1.623-23,2.314-34.511.721-11.981,1.416-23.965,1.934-35.956a171.5,171.5,0,0,0-.37-24.654,2.057,2.057,0,0,0-2-2,2.012,2.012,0,0,0-2,2Z"></path><path class="c" d="M44.863,318.127c-1.31-11.364-1.809-22.838-2.363-34.258-.579-11.94-1.035-23.886-1.441-35.833a185.236,185.236,0,0,1,.39-24.8,2.013,2.013,0,0,0-2-2,2.044,2.044,0,0,0-2,2c-1.281,12.814-.383,25.775.107,38.616.5,12.947,1.048,25.9,1.87,38.827.37,5.822.769,11.651,1.437,17.447a2.061,2.061,0,0,0,2,2,2.012,2.012,0,0,0,2-2Z"></path><path class="c" d="M60.2,244v74.122c0,2.574,4,2.578,4,0V244c0-2.574-4-2.578-4,0Z"></path><path class="c" d="M44.089,320.571q18.053.142,36.111-.213c2.57-.054,2.579-4.055,0-4q-18.048.382-36.111.213c-2.575-.02-2.577,3.98,0,4Z"></path><path class="c" d="M53.063,220.457h18.3c2.574,0,2.578-4,0-4h-18.3c-2.573,0-2.578,4,0,4Z"></path><path class="c" d="M42.242,160.728a5.976,5.976,0,0,1-5.654-3.128c-.9-1.924-.217-4.633.132-6.629.371-2.125,1.007-4.183,1.337-6.319a77.121,77.121,0,0,0,.778-8.128c.3-6.284-.238-12.537,1.348-18.7,1.068-4.149,2.928-8.257,6.168-11.163,8.094-7.26,22.021-7.9,30.285-.653a25.636,25.636,0,0,1,7.988,14.057,31.954,31.954,0,0,1,.515,6.865c.01,3.224.047,6.451.2,9.672.2,4.28.458,8.747,1.8,12.85.85,2.6,1.877,5.771.18,8.219a5.578,5.578,0,0,1-6.5,2.213c-2.449-.812-3.5,3.05-1.063,3.857,5.605,1.856,12.131-2.307,12.459-8.322.157-2.882-.853-5.509-1.582-8.23a33.993,33.993,0,0,1-.92-5.387c-.633-6.2-.255-12.4-.624-18.6A30.615,30.615,0,0,0,82.306,106c-8.537-10.349-24.168-11.609-35.253-4.776a23.344,23.344,0,0,0-9.461,11.632c-2.47,6.187-2.566,12.666-2.633,19.219a88.1,88.1,0,0,1-.651,10.77c-.372,2.78-1.222,5.45-1.632,8.223-.465,3.146-.99,6.5.9,9.3a10.2,10.2,0,0,0,8.665,4.355c2.573-.01,2.578-4.01,0-4Z"></path><path class="c" d="M81.929,130.783c.161-.044.32-.075.484-.111-.457.1.018.013.126.011.166,0,.331.009.5.018-.276-.015-.175-.03.042.017a4.939,4.939,0,0,1,.481.129c.184.06.314.133.064.011.15.073.3.148.441.234.059.035.479.351.14.068.128.107.251.217.368.336.073.074.36.461.116.107.08.116.156.233.225.356.046.078.088.157.127.238-.064-.169-.07-.187-.02-.053a5.8,5.8,0,0,1,.264.987c-.078-.409,0,.167.006.218.008.19.006.381,0,.571,0,.087-.077.63-.011.231-.026.159-.058.316-.1.472q-.066.282-.156.556c-.038.114-.146.413-.038.151a6.105,6.105,0,0,1-.548,1c-.006.009-.356.5-.14.219-.118.154-.247.3-.378.446a9.7,9.7,0,0,1-.768.763c-.122.11-.248.217-.376.321.261-.211-.173.125-.227.162a10.261,10.261,0,0,1-1,.615c-.17.091-.344.174-.517.258-.38.185.2-.072-.223.089a2.045,2.045,0,0,0-1.4,2.46,2.022,2.022,0,0,0,2.46,1.4c3.974-1.5,7.469-5.045,7.425-9.525a6.894,6.894,0,0,0-2.8-5.623,6.71,6.71,0,0,0-5.63-.99,2,2,0,0,0,1.064,3.857Z"></path><path class="c" d="M43.705,127a6.7,6.7,0,0,0-5.652.862,6.934,6.934,0,0,0-2.92,5.564c-.184,4.49,3.277,8.093,7.184,9.708a2,2,0,0,0,2.46-1.4,2.061,2.061,0,0,0-1.4-2.46c.363.15-.193-.1-.213-.11q-.26-.131-.51-.275a10.472,10.472,0,0,1-.9-.587q-.165-.123.013.013c-.078-.062-.154-.125-.229-.189-.126-.107-.249-.216-.37-.329a11.154,11.154,0,0,1-.815-.855c-.4-.456.177.284-.165-.21-.11-.158-.218-.316-.319-.48-.083-.136-.161-.273-.235-.414-.045-.084-.088-.169-.128-.255.06.156.065.169.014.037a6.784,6.784,0,0,1-.3-1.013c-.008-.038-.088-.632-.051-.228-.018-.192-.032-.382-.036-.574s.011-.381.015-.571c.008-.37-.043.084.012-.123a7.675,7.675,0,0,1,.277-.986c-.15.365.076-.115.118-.188s.352-.475.072-.147a4.923,4.923,0,0,1,.34-.367c.077-.073.466-.352.109-.11.115-.078.23-.154.35-.224.051-.029.519-.263.282-.158s.176-.057.228-.074c.159-.049.321-.084.483-.122.5-.119-.383,0,.126-.014.167,0,.331,0,.5,0,.419,0-.316-.106.124.01.16.042.321.078.48.126a2.019,2.019,0,0,0,2.46-1.4,2.041,2.041,0,0,0-1.4-2.46Z"></path><path class="c" d="M79.214,140.682a19.376,19.376,0,0,1-6.589,9.323,17.018,17.018,0,0,1-10.289,3.055,17.622,17.622,0,0,1-10.542-3.14,19.021,19.021,0,0,1-6.5-9.088c-.843-2.415-4.708-1.376-3.857,1.063,2.319,6.652,7.405,12.477,14.38,14.337,7.046,1.878,15.056.729,20.6-4.185a23.99,23.99,0,0,0,6.66-10.3c.828-2.443-3.035-3.492-3.857-1.063Z"></path><path class="c" d="M66.991,133.479a3.849,3.849,0,0,1,.951-3.092,2.942,2.942,0,0,1,2.013-.858,3.155,3.155,0,0,1,2.637,1.236,3.871,3.871,0,0,1-.083,4.514,3.006,3.006,0,0,1-4.051.66A3.3,3.3,0,0,1,66.991,133.479Z"></path><path class="c" d="M51.647,133.479a3.849,3.849,0,0,1,.951-3.092,2.941,2.941,0,0,1,2.013-.858,3.153,3.153,0,0,1,2.636,1.236,3.87,3.87,0,0,1-.083,4.514,3,3,0,0,1-4.05.66A3.3,3.3,0,0,1,51.647,133.479Z"></path><path class="c" d="M67.965,112.552a63.766,63.766,0,0,1-12.861,8.8c-3.852,2.135-7.981,4.421-12.307,5.431-2.506.585-1.445,4.443,1.063,3.857,4.644-1.084,9.125-3.541,13.263-5.835a67.85,67.85,0,0,0,13.67-9.423c1.882-1.765-.951-4.589-2.828-2.829Z"></path><path class="c" d="M82.407,127.127a23.228,23.228,0,0,1-3.715-2.7c-.661-.576-1.3-1.176-1.911-1.806q-.437-.45-.849-.922-.18-.206-.354-.416c.007.007-.385-.5-.2-.251a30.475,30.475,0,0,1-2.8-4.374q-.211-.411-.4-.833c-.018-.039-.249-.58-.079-.167-.054-.132-.107-.264-.159-.4-.233-.6-.435-1.214-.623-1.83a2,2,0,1,0-3.857,1.063,28.774,28.774,0,0,0,12.937,16.083c2.23,1.3,4.246-2.161,2.019-3.454Z"></path><path class="c" d="M51.862,153.606a21.452,21.452,0,0,1-.269,2.539l.071-.532a10.092,10.092,0,0,1-.473,2.409l.2-.477a2.487,2.487,0,0,1-.161.312c-.117.186-.219.156.14-.171-.046.043-.085.095-.13.139a1.31,1.31,0,0,0-.15.133c0-.055.464-.318.158-.139a4.29,4.29,0,0,1-.482.247l.478-.2c-.486.2-.993.341-1.489.509a2,2,0,0,0,1.064,3.858,9.949,9.949,0,0,0,2.629-1.082,4.46,4.46,0,0,0,1.842-3q.209-1.24.364-2.489a18.424,18.424,0,0,0,.207-2.056,2,2,0,0,0-4,0Z"></path><path class="c" d="M67.715,153.841c.083.941.173,1.877.322,2.811a9.486,9.486,0,0,0,.388,1.908,4.293,4.293,0,0,0,2.075,2.4c.554.275,1.158.479,1.736.705.483.188.968.372,1.448.567a2,2,0,0,0,1.541-.2,2,2,0,0,0,.717-2.737,2.34,2.34,0,0,0-1.195-.919c-.822-.335-1.657-.636-2.48-.967l.478.2a3.453,3.453,0,0,1-.71-.4l.405.312a2.391,2.391,0,0,1-.371-.368l.313.405a2.391,2.391,0,0,1-.276-.471l.2.477a10.375,10.375,0,0,1-.494-2.524l.071.532c-.074-.574-.119-1.15-.17-1.726a2.149,2.149,0,0,0-.585-1.415,2,2,0,0,0-3.415,1.415Z"></path><path class="c" d="M50.357,166.922c6.985,4.436,17.076,4.156,23.708-.85a2.065,2.065,0,0,0,.718-2.737,2.013,2.013,0,0,0-2.736-.717,17.726,17.726,0,0,1-19.672.85c-2.179-1.384-4.188,2.076-2.018,3.454Z"></path><path class="c" d="M1.932,342.9H123.545c2.574,0,2.578-4,0-4H1.932c-2.574,0-2.578,4,0,4Z"></path><path class="c" d="M84.43,180.489q.366,21.374.761,42.748c.044,2.571,4.044,2.579,4,0q-.365-21.375-.761-42.748c-.044-2.571-4.044-2.579-4,0Z"></path><path class="c" d="M84.66,221.255H74.427a4.99,4.99,0,0,0-1.514,0c-.034.016-.141-.027-.164,0l.53.5c.005-.243.011-.487.016-.73l.018-.738q.054-2.279.119-4.558c.347-12.222.861-24.439,1.42-36.653q.435-9.531.914-19.06l-2.532,1.929a61.63,61.63,0,0,1,10.146,4.429,19.238,19.238,0,0,1,7.095,7.193A24.156,24.156,0,0,1,92.594,179c.771,2.6,1.372,5.245,1.905,7.9a269.211,269.211,0,0,1,4.226,33.135q.054.723.1,1.447c.016.242-.066.95.072,1.141.083.116.788-.087.294-.155a4.171,4.171,0,0,0-.807.065c-.745.053-1.492.091-2.238.127-3.274.153-6.552.235-9.829.312-2.57.061-2.579,4.061,0,4,3.076-.072,6.152-.151,9.226-.285,1.3-.057,2.607-.1,3.9-.245a3.668,3.668,0,0,0,3.445-3.949c-.158-4.8-.751-9.623-1.271-14.39-.72-6.615-1.583-13.227-2.786-19.773-.977-5.319-2.042-10.867-4.39-15.781-3.891-8.142-12.155-11.571-20.147-14.456a2.019,2.019,0,0,0-2.532,1.928q-.927,18.607-1.694,37.222-.381,9.632-.662,19.266-.057,2.076-.106,4.153c-.039,1.657.148,3.3,1.78,4.168a7.919,7.919,0,0,0,3.715.426H84.66c2.574,0,2.578-4,0-4Z"></path><path class="c" d="M35.992,180.489q-.366,21.374-.761,42.748c-.044,2.575,3.956,2.575,4,0q.364-21.375.761-42.748c.044-2.575-3.956-2.575-4,0Z"></path><path class="c" d="M39.762,225.255h8.6c1.09,0,2.2.055,3.284,0a3.6,3.6,0,0,0,3.085-1.83c.719-1.336.379-3.168.341-4.629-.326-12.83-.863-25.655-1.445-38.476q-.461-10.15-.971-20.3a2.019,2.019,0,0,0-2.532-1.928,67.481,67.481,0,0,0-11.1,4.832,23.421,23.421,0,0,0-8.367,8.351c-2.6,4.372-3.636,9.784-4.619,14.7a276.574,276.574,0,0,0-4.426,35.262c-.107,1.565-.185,3.065,1.059,4.26,1.224,1.176,3.294,1.038,4.885,1.121,3.513.183,7.031.266,10.547.348,2.575.061,2.574-3.939,0-4-2.869-.067-5.738-.142-8.6-.259-1.33-.054-2.663-.107-3.99-.22-.149-.013-.922-.032-.277.085.53.1.141.254.3-.085a4.118,4.118,0,0,0,.075-1.169c.323-4.755.779-9.5,1.308-14.24.673-6.02,1.48-12.031,2.586-17.988.516-2.78,1.1-5.551,1.821-8.284.311-1.174.65-2.341,1.036-3.492a25.108,25.108,0,0,1,1-2.586,18.659,18.659,0,0,1,6.464-7.6,52.671,52.671,0,0,1,11.371-5.186l-2.532-1.929q.885,17.757,1.626,35.521.366,9.115.651,18.233.06,2.037.115,4.075.027,1.035.052,2.071l.018.741c.006.244.011.489.017.734q-.115.855.538-.14c-.064-.072-.6,0-.687,0H39.762c-2.574,0-2.578,4,0,4Z"></path></svg>